<mxfile host="app.diagrams.net" modified="2023-04-08T07:12:57.978Z" agent="Mozilla/5.0 (Windows NT 10.0; Win64; x64) AppleWebKit/537.36 (KHTML, like Gecko) Chrome/112.0.0.0 Safari/537.36" version="21.1.5" etag="igOMi_7u-gND3ZeKCFMz" type="github">
  <diagram name="Halaman-1" id="-wLdN_s6xT9YVrrnZjHA">
    <mxGraphModel>
      <root>
        <mxCell id="0" />
        <mxCell id="1" parent="0" />
      </root>
    </mxGraphModel>
  </diagram>
</mxfile>
